<svg xmlns="http://www.w3.org/2000/svg" width="780" height="267" viewBox="0 0 780 267" role="img"><rect width="780" height="267" fill="#1a1a19"/><text x="16" y="20" font-family="system-ui,-apple-system,Segoe UI,sans-serif" font-size="13" font-weight="600" fill="#ffffff" text-anchor="start" dominant-baseline="middle">Skill prompt cost, paid on every turn (sonnet-5 tokenizer)</text><line x1="56" y1="206" x2="756" y2="206" stroke="#2c2c2a" stroke-width="1"/><text x="48" y="206" font-family="system-ui,-apple-system,Segoe UI,sans-serif" font-size="10" font-weight="400" fill="#898781" text-anchor="end" dominant-baseline="middle">0</text><line x1="56" y1="172.21621621621622" x2="756" y2="172.21621621621622" stroke="#2c2c2a" stroke-width="1"/><text x="48" y="172.21621621621622" font-family="system-ui,-apple-system,Segoe UI,sans-serif" font-size="10" font-weight="400" fill="#898781" text-anchor="end" dominant-baseline="middle">500</text><line x1="56" y1="138.43243243243245" x2="756" y2="138.43243243243245" stroke="#2c2c2a" stroke-width="1"/><text x="48" y="138.43243243243245" font-family="system-ui,-apple-system,Segoe UI,sans-serif" font-size="10" font-weight="400" fill="#898781" text-anchor="end" dominant-baseline="middle">1000</text><line x1="56" y1="104.64864864864865" x2="756" y2="104.64864864864865" stroke="#2c2c2a" stroke-width="1"/><text x="48" y="104.64864864864865" font-family="system-ui,-apple-system,Segoe UI,sans-serif" font-size="10" font-weight="400" fill="#898781" text-anchor="end" dominant-baseline="middle">1500</text><line x1="56" y1="70.86486486486487" x2="756" y2="70.86486486486487" stroke="#2c2c2a" stroke-width="1"/><text x="48" y="70.86486486486487" font-family="system-ui,-apple-system,Segoe UI,sans-serif" font-size="10" font-weight="400" fill="#898781" text-anchor="end" dominant-baseline="middle">2000</text><path d="M160.66666666666669,206V172.63513513513513Q160.66666666666669,168.63513513513513 164.66666666666669,168.63513513513513H180.66666666666669Q184.66666666666669,168.63513513513513 184.66666666666669,172.63513513513513V206Z" fill="#3987e5"/><text x="172.66666666666669" y="159.63513513513513" font-family="system-ui,-apple-system,Segoe UI,sans-serif" font-size="10" font-weight="400" fill="#898781" text-anchor="middle" dominant-baseline="middle">553</text><g transform="translate(172.66666666666669,216) rotate(-35)"><text x="0" y="0" font-family="system-ui,-apple-system,Segoe UI,sans-serif" font-size="10" font-weight="400" fill="#898781" text-anchor="end" dominant-baseline="middle">dense</text></g><path d="M394.00000000000006,206V74.25675675675674Q394.00000000000006,70.25675675675674 398.00000000000006,70.25675675675674H414.00000000000006Q418.00000000000006,70.25675675675674 418.00000000000006,74.25675675675674V206Z" fill="#3987e5"/><text x="406.00000000000006" y="61.256756756756744" font-family="system-ui,-apple-system,Segoe UI,sans-serif" font-size="10" font-weight="400" fill="#898781" text-anchor="middle" dominant-baseline="middle">2009</text><g transform="translate(406.00000000000006,216) rotate(-35)"><text x="0" y="0" font-family="system-ui,-apple-system,Segoe UI,sans-serif" font-size="10" font-weight="400" fill="#898781" text-anchor="end" dominant-baseline="middle">caveman</text></g><path d="M627.3333333333334,206V50Q627.3333333333334,46 631.3333333333334,46H647.3333333333334Q651.3333333333334,46 651.3333333333334,50V206Z" fill="#3987e5"/><text x="639.3333333333334" y="37" font-family="system-ui,-apple-system,Segoe UI,sans-serif" font-size="10" font-weight="400" fill="#898781" text-anchor="middle" dominant-baseline="middle">2368</text><g transform="translate(639.3333333333334,216) rotate(-35)"><text x="0" y="0" font-family="system-ui,-apple-system,Segoe UI,sans-serif" font-size="10" font-weight="400" fill="#898781" text-anchor="end" dominant-baseline="middle">ponytail</text></g><line x1="56" y1="206" x2="756" y2="206" stroke="#383835" stroke-width="1"/></svg>